<?xml version="1.0" encoding="iso-8859-1"?>
<!-- Generator: Adobe Illustrator 19.0.0, SVG Export Plug-In . SVG Version: 6.00 Build 0)  -->
<svg version="1.1" id="Layer_1" xmlns="http://www.w3.org/2000/svg" xmlns:xlink="http://www.w3.org/1999/xlink" x="0px" y="0px"
	 viewBox="0 0 512 512" style="enable-background:new 0 0 512 512;" xml:space="preserve">
<g>
	<g>
		<path d="M437.124,75.234C388.839,26.948,324.642,0.356,256.356,0.356c-0.118,0-0.237,0.004-0.356,0.004
			c-0.118,0-0.237-0.004-0.356-0.004c-68.284,0-132.483,26.591-180.768,74.877C26.591,123.517,0,187.716,0,256
			c0,64.407,24.032,125.934,67.668,173.248c43.378,47.035,102.244,75.953,165.755,81.425c0.309,0.027,0.617,0.032,0.922,0.024
			c7.281,0.617,14.62,0.947,22.01,0.947c68.284,0,132.483-26.591,180.768-74.877C485.408,388.483,512,324.284,512,255.999
			S485.409,123.517,437.124,75.234z M269.099,440.834v54.323c-4.221,0.223-8.468,0.34-12.742,0.34
			c-4.757,0-9.478-0.156-14.168-0.431v-93.792c0-2.468-1.129-4.802-3.066-6.332l-61.09-48.306l8.87-11.216l42.204,33.374
			c2.428,1.92,5.738,2.281,8.526,0.934c2.786-1.349,4.554-4.172,4.554-7.267v-98.389h26.91v58.066c0,3.095,1.77,5.918,4.555,7.267
			c2.785,1.346,6.097,0.984,8.525-0.934l14.292-11.302l8.868,11.216l-33.177,26.235c-1.936,1.531-3.066,3.864-3.066,6.332v41.068
			c0,3.095,1.77,5.918,4.554,7.267c2.787,1.346,6.098,0.986,8.526-0.934l63.937-50.558l8.868,11.215l-82.821,65.492
			C270.228,436.032,269.099,438.366,269.099,440.834z M262.86,58.631c-1.368-2.731-4.161-4.455-7.216-4.455
			c-3.055,0-5.848,1.724-7.216,4.455l-75.164,149.902c-2.692,5.368,1.211,11.692,7.216,11.692c3.055,0,5.847-1.724,7.216-4.454
			l67.947-135.512l171.556,342.144c-37.009,38.224-86.536,64.389-141.955,71.262v-48.923l86.089-68.074
			c0.219-0.173,0.426-0.355,0.621-0.545c1.566-1.52,2.399-3.556,2.442-5.624c0.038-1.809-0.53-3.641-1.739-5.172l-18.883-23.881
			c-0.475-0.601-1.017-1.153-1.647-1.588c-3.095-2.137-6.991-1.872-9.693,0.264l-57.19,45.224v-20.484l36.31-28.713
			c0.88-0.696,1.658-1.533,2.194-2.519c1.612-2.967,1.227-6.447-0.735-8.928l-18.789-23.761c-0.474-0.6-1.009-1.158-1.628-1.606
			c-3.113-2.255-7.072-2-9.807,0.163l-7.544,5.966V256c0-4.458-3.615-8.073-8.073-8.073h-43.056c-4.458,0-8.073,3.615-8.073,8.073
			v89.786l-35.456-28.038c-1.68-1.328-3.822-1.939-5.944-1.686c-2.127,0.248-4.068,1.331-5.396,3.011l-18.884,23.882
			c-0.471,0.596-0.882,1.249-1.158,1.957c-1.378,3.526-0.217,7.248,2.482,9.383l64.357,50.889v88.403
			c-55.391-7.027-104.932-33.056-141.888-71.317l83.824-167.176c2.692-5.368-1.211-11.692-7.216-11.692
			c-3.055,0-5.847,1.724-7.216,4.454L72.561,409.37C37.808,367.793,16.859,314.3,16.859,256C16.859,124.06,124.105,16.7,256,16.506
			C387.896,16.7,495.142,124.06,495.142,256c0,57.853-21.182,111.638-56.337,153.524L262.86,58.631z"/>
	</g>
</g>
<g>
</g>
<g>
</g>
<g>
</g>
<g>
</g>
<g>
</g>
<g>
</g>
<g>
</g>
<g>
</g>
<g>
</g>
<g>
</g>
<g>
</g>
<g>
</g>
<g>
</g>
<g>
</g>
<g>
</g>
</svg>
